<svg width="42" height="42" viewBox="0 0 42 42" fill="none" xmlns="http://www.w3.org/2000/svg">
<g id="Group 511">
<circle id="Ellipse 228" cx="21" cy="21" r="21" fill="#F866A4"/>
<g id="Group">
<path id="Vector" d="M13.5 29.4V18.6C13.5 16.6905 14.2902 14.8591 15.6967 13.5089C17.1032 12.1586 19.0109 11.4 21 11.4C22.9891 11.4 24.8968 12.1586 26.3033 13.5089C27.7098 14.8591 28.5 16.6905 28.5 18.6V29.4M13.5 29.4H28.5M13.5 29.4H11M28.5 29.4H31M19.75 33H22.25" stroke="white" stroke-width="2" stroke-linecap="round" stroke-linejoin="round"/>
<path id="Vector_2" d="M21 11.4C21.6904 11.4 22.25 10.8627 22.25 10.2C22.25 9.53726 21.6904 9 21 9C20.3096 9 19.75 9.53726 19.75 10.2C19.75 10.8627 20.3096 11.4 21 11.4Z" stroke="white" stroke-width="2"/>
</g>
</g>
</svg>
